# xmcd CD database file
#
# Track frame offsets:
#	150
#	29299
#	52441
#	63316
#	79067
#	115979
#	140148
#	165466
#	183154
#	212264
#
# Disc length: 3048 seconds
#
# Revision: 0
# Processed by: cddbd v1.5.1PL2 Copyright (c) Steve Scherf et al.
# Submitted via: CDex 1.70beta2
#
DISCID=8a0be60a
DTITLE=Yoe Jin - In Gray
DYEAR=2006
DGENRE=Jazz
TTITLE0=Can You Hear Me?
TTITLE1=Will Be My Days
TTITLE2=Sad Sunday
TTITLE3=미치도록 빠져드는 너에게
TTITLE4=두개의 문
TTITLE5=Song For You
TTITLE6=My Hero Is On My Mind
TTITLE7=To Be With You
TTITLE8=Pride And ...
TTITLE9=이별의 관습
EXTD=YEAR: 2006
EXTT0=
EXTT1=
EXTT2=
EXTT3=
EXTT4=
EXTT5=
EXTT6=
EXTT7=
EXTT8=
EXTT9=
PLAYORDER=
